<svg xmlns="http://www.w3.org/2000/svg" viewBox="0 0 256 256" fill="none">
  <circle cx="128" cy="40" r="16" fill="#111827" />
  <circle cx="40" cy="88" r="16" fill="#111827" />
  <circle cx="216" cy="88" r="16" fill="#111827" />
  <circle cx="40" cy="168" r="16" fill="#111827" />
  <circle cx="216" cy="168" r="16" fill="#111827" />
  <circle cx="128" cy="216" r="16" fill="#111827" />
  <circle cx="128" cy="128" r="20" fill="#111827" />

  <path d="M 128 56 L 128 108" stroke="#111827" stroke-width="8" stroke-linecap="round" />
  <path d="M 128 148 L 128 200" stroke="#111827" stroke-width="8" stroke-linecap="round" />

  <path d="M 52 94 L 110 122" stroke="#111827" stroke-width="8" stroke-linecap="round" />
  <path d="M 204 94 L 146 122" stroke="#111827" stroke-width="8" stroke-linecap="round" />

  <path d="M 52 162 L 110 134" stroke="#111827" stroke-width="8" stroke-linecap="round" />
  <path d="M 204 162 L 146 134" stroke="#111827" stroke-width="8" stroke-linecap="round" />

  <path d="M 46 100 L 46 156" stroke="#111827" stroke-width="4" stroke-linecap="round" stroke-dasharray="8 8" />
  <path d="M 210 100 L 210 156" stroke="#111827" stroke-width="4" stroke-linecap="round" stroke-dasharray="8 8" />
  <path d="M 112 46 L 56 74" stroke="#111827" stroke-width="4" stroke-linecap="round" stroke-dasharray="8 8" />
  <path d="M 144 46 L 200 74" stroke="#111827" stroke-width="4" stroke-linecap="round" stroke-dasharray="8 8" />
  <path d="M 112 210 L 56 182" stroke="#111827" stroke-width="4" stroke-linecap="round" stroke-dasharray="8 8" />
  <path d="M 144 210 L 200 182" stroke="#111827" stroke-width="4" stroke-linecap="round" stroke-dasharray="8 8" />
</svg>
